<?xml version="1.0" encoding="UTF-8"?>
<svg id="Layer_1" data-name="Layer 1" xmlns="http://www.w3.org/2000/svg" viewBox="0 0 57.99 21.87">
  <defs>
    <style>
      .cls-1 {
        fill: #47859e;
        fill-rule: evenodd;
      }
    </style>
  </defs>
  <path class="cls-1" d="M54.06,15.08c1.52,1.16,2.14,1.79,3.93,2.59-.89-1.79-1.52-2.32-2.77-3.84-2.41-2.68-11.08-11.88-15.01-9.2-2.06,1.43-1.16,6.7-1.25,9.56-1.97-1.97-4.02-5.27-6.08-8.13-1.61-2.41-3.13-4.47-4.65-5.27-1.34-.72-2.5-.89-3.75-.72h-.09c-5.18,1.16-8.94,10.46-11.62,13.85-.36.54-.54.63-.89.98-.89-.89-1.16-4.11-2.06-4.65-1.7-1.07-3.13,1.52-3.93,2.59C5.36,13.74.18,21.15.18,21.6h-.09c-.09,0-.09.09-.09.09.27.98,3.49-2.32,3.57-2.5.8-.8,2.95-3.31,4.56-5,.54,2.06,1.43,4.11,3.57,4.29,4.74.36,9.56-12.33,13.49-13.49.8-.27,2.5,2.95,3.13,3.75,1.97,2.77,7.77,10.63,11.35,10.81,5.09.09,3.13-8.22,2.95-11.17v-.72c3.04.63,9.74,6.08,11.44,7.42Z"/>
</svg>